<?xml version="1.0" encoding="UTF-8" standalone="no"?>
<svg
   version="1.1"
   id="Layer_1"
   x="0px"
   y="0px"
   width="100%"
   viewBox="0 0 1280 1280"
   enable-background="new 0 0 1280 1280"
   xml:space="preserve"
   sodipodi:docname="4fac9b493a5fc745a974b6685391dc77.svg"
   xmlns:inkscape="http://www.inkscape.org/namespaces/inkscape"
   xmlns:sodipodi="http://sodipodi.sourceforge.net/DTD/sodipodi-0.dtd"
   xmlns="http://www.w3.org/2000/svg"
   xmlns:svg="http://www.w3.org/2000/svg"><defs
   id="defs137" /><sodipodi:namedview
   id="namedview135"
   pagecolor="#ffffff"
   bordercolor="#666666"
   borderopacity="1.0"
   inkscape:pageshadow="2"
   inkscape:pageopacity="0.0"
   inkscape:pagecheckerboard="0" />
<path
   fill="#FFFFFF"
   opacity="1.000000"
   stroke="none"
   d=" M1281.000000,453.000000   C1281.000000,729.333313 1281.000000,1005.166565 1281.000000,1281.000000   C854.333435,1281.000000 427.666931,1281.000000 1.000283,1281.000000   C1.000189,854.333557 1.000189,427.667084 1.000094,1.000455   C427.666382,1.000303 854.332764,1.000303 1280.999512,1.000152   C1281.000000,151.500000 1281.000000,302.000000 1281.000000,453.000000  M129.640610,1195.859619   C167.970398,1231.455322 213.078842,1246.785767 264.911743,1238.920532   C316.312347,1231.120850 354.903595,1203.626953 380.813965,1158.597656   C391.720276,1139.643555 397.778534,1118.999268 400.045044,1098.589600   C410.054718,1099.410034 419.762146,1100.886963 429.471375,1100.898438   C558.627747,1101.052734 687.784363,1101.001343 816.940918,1101.001343   C818.596741,1101.001343 820.252563,1101.001343 822.155579,1101.001343   C822.788574,1104.619873 823.353699,1108.050171 823.991394,1111.466919   C841.407166,1204.771973 939.252991,1262.868896 1029.478516,1233.482788   C1096.595459,1211.623047 1140.701904,1151.196289 1140.978516,1080.523560   C1141.107178,1047.693237 1140.828369,1014.860901 1141.072388,982.031921   C1141.204102,964.309937 1149.769653,951.692322 1166.057617,944.591858   C1173.207764,941.474731 1180.549927,938.799500 1187.788818,935.883667   C1217.735107,923.821106 1236.346802,902.300659 1240.053955,869.924561   C1241.825806,854.450378 1240.945068,838.652588 1240.914062,823.002075   C1240.902222,817.045837 1240.326416,811.015564 1239.271851,805.151367   C1236.650146,790.572632 1229.785645,777.978210 1219.801636,766.713196   C1236.805054,751.991821 1241.286255,733.023560 1241.182373,711.473877   C1240.751587,622.149597 1241.007690,532.822083 1240.998291,443.495728   C1240.994385,406.878113 1215.061890,381.003479 1178.378296,381.000214   C1104.217407,380.993561 1030.056396,381.059235 955.895691,380.949280   C940.227478,380.926056 924.587952,380.438751 910.905029,389.164917   C907.095764,383.461639 903.897522,377.982422 900.010864,373.045197   C896.006287,367.958160 890.971130,363.670929 887.075439,358.513611   C884.467041,355.060608 881.785767,350.826477 881.378845,346.719727   C880.515015,338.002228 881.115234,329.139648 881.115234,320.406097   C917.178040,313.354858 940.769714,286.014832 940.948547,250.750717   C941.157166,209.588440 941.236511,168.422211 940.910522,127.261360   C940.540955,80.595215 901.335510,41.336342 854.636780,41.099056   C792.143433,40.781509 729.646484,40.854462 667.152649,41.119049   C646.854309,41.204990 628.651672,48.231339 613.089661,61.305004   C591.835815,79.160362 581.271667,102.204407 581.013977,129.944458   C580.918579,140.212814 580.998535,150.482803 580.998535,161.144211   C574.054688,161.144211 567.642029,161.144211 561.274414,161.144211   C561.274414,174.619614 561.274414,187.691711 561.274414,201.158875   C587.954224,201.158875 614.360413,201.158875 641.069824,201.158875   C641.069824,217.864410 640.380615,234.206879 641.208618,250.472092   C643.126465,288.144104 660.763550,316.617920 693.860718,334.793823   C704.279358,340.515442 715.756104,344.325043 726.794739,348.898438   C736.713684,353.007874 740.960205,359.185425 740.994446,369.996429   C741.013428,375.995911 740.999878,381.995483 740.997437,387.995026   C740.994751,394.852386 734.855347,400.996155 727.991028,400.996368   C654.330139,400.998566 580.669189,400.997986 507.008301,400.998169   C505.389069,400.998169 503.769836,400.998169 502.322083,400.998169   C492.517822,376.183838 470.592255,360.012146 439.188538,360.789368   C402.880280,361.687958 366.532227,360.898682 330.202667,361.082550   C322.914703,361.119415 315.537262,361.689240 308.361694,362.937012   C219.752335,378.345856 179.717239,481.830017 234.980850,552.727844   C245.827820,566.643433 257.328461,580.060547 268.806427,593.468933   C275.355469,601.119385 276.567688,609.100708 272.964600,618.436768   C244.816360,691.372009 216.783707,764.351868 188.794479,837.348328   C187.707062,840.184265 186.066483,841.187561 183.178970,841.953857   C176.169540,843.813904 168.770401,845.336487 162.539337,848.809204   C129.730316,867.093933 97.070076,885.660950 64.688057,904.691223   C42.816273,917.544678 31.367994,942.906616 35.219685,967.344788   C39.250549,992.919983 57.432552,1012.929077 82.365616,1019.165466   C85.646111,1019.985901 88.980087,1020.592590 92.345047,1021.310181   C65.691452,1090.904907 89.523201,1157.049316 129.640610,1195.859619  M1158.500000,240.999725   C1172.596069,240.999725 1186.692017,240.999725 1200.709961,240.999725   C1200.709961,227.351944 1200.709961,214.280350 1200.709961,201.287369   C1147.352417,201.287369 1094.285400,201.287369 1041.290039,201.287369   C1041.290039,214.648026 1041.290039,227.719620 1041.290039,240.999725   C1080.219727,240.999725 1118.859863,240.999725 1158.500000,240.999725  M1007.576843,320.999756   C1058.662354,320.999756 1109.747803,320.999756 1160.683838,320.999756   C1160.683838,307.300323 1160.683838,294.227478 1160.683838,281.316620   C1107.297974,281.316620 1054.228638,281.316620 1001.320740,281.316620   C1001.320740,294.707306 1001.320740,307.779694 1001.320740,320.999756   C1003.292114,320.999756 1004.945984,320.999756 1007.576843,320.999756  M1121.000122,124.651855   C1121.000122,136.735504 1121.000122,148.819138 1121.000122,160.656189   C1161.421875,160.656189 1201.159180,160.656189 1240.652588,160.656189   C1240.652588,147.237106 1240.652588,134.163116 1240.652588,121.000290   C1231.978638,121.000290 1223.651489,121.000298 1215.324463,121.000298   C1185.326538,121.000305 1155.328613,120.982796 1125.330811,121.044136   C1123.544922,121.047783 1120.545776,119.721313 1121.000122,124.651855  z"
   id="path2" />
<path
   fill="#010101"
   opacity="1.000000"
   stroke="none"
   d=" M129.380508,1195.622070   C89.523201,1157.049316 65.691452,1090.904907 92.345047,1021.310181   C88.980087,1020.592590 85.646111,1019.985901 82.365616,1019.165466   C57.432552,1012.929077 39.250549,992.919983 35.219685,967.344788   C31.367994,942.906616 42.816273,917.544678 64.688057,904.691223   C97.070076,885.660950 129.730316,867.093933 162.539337,848.809204   C168.770401,845.336487 176.169540,843.813904 183.178970,841.953857   C186.066483,841.187561 187.707062,840.184265 188.794479,837.348328   C216.783707,764.351868 244.816360,691.372009 272.964600,618.436768   C276.567688,609.100708 275.355469,601.119385 268.806427,593.468933   C257.328461,580.060547 245.827820,566.643433 234.980850,552.727844   C179.717239,481.830017 219.752335,378.345856 308.361694,362.937012   C315.537262,361.689240 322.914703,361.119415 330.202667,361.082550   C366.532227,360.898682 402.880280,361.687958 439.188538,360.789368   C470.592255,360.012146 492.517822,376.183838 502.322083,400.998169   C503.769836,400.998169 505.389069,400.998169 507.008301,400.998169   C580.669189,400.997986 654.330139,400.998566 727.991028,400.996368   C734.855347,400.996155 740.994751,394.852386 740.997437,387.995026   C740.999878,381.995483 741.013428,375.995911 740.994446,369.996429   C740.960205,359.185425 736.713684,353.007874 726.794739,348.898438   C715.756104,344.325043 704.279358,340.515442 693.860718,334.793823   C660.763550,316.617920 643.126465,288.144104 641.208618,250.472092   C640.380615,234.206879 641.069824,217.864410 641.069824,201.158875   C614.360413,201.158875 587.954224,201.158875 561.274414,201.158875   C561.274414,187.691711 561.274414,174.619614 561.274414,161.144211   C567.642029,161.144211 574.054688,161.144211 580.998535,161.144211   C580.998535,150.482803 580.918579,140.212814 581.013977,129.944458   C581.271667,102.204407 591.835815,79.160362 613.089661,61.305004   C628.651672,48.231339 646.854309,41.204990 667.152649,41.119049   C729.646484,40.854462 792.143433,40.781509 854.636780,41.099056   C901.335510,41.336342 940.540955,80.595215 940.910522,127.261360   C941.236511,168.422211 941.157166,209.588440 940.948547,250.750717   C940.769714,286.014832 917.178040,313.354858 881.115234,320.406097   C881.115234,329.139648 880.515015,338.002228 881.378845,346.719727   C881.785767,350.826477 884.467041,355.060608 887.075439,358.513611   C890.971130,363.670929 896.006287,367.958160 900.010864,373.045197   C903.897522,377.982422 907.095764,383.461639 910.905029,389.164917   C924.587952,380.438751 940.227478,380.926056 955.895691,380.949280   C1030.056396,381.059235 1104.217407,380.993561 1178.378296,381.000214   C1215.061890,381.003479 1240.994385,406.878113 1240.998291,443.495728   C1241.007690,532.822083 1240.751587,622.149597 1241.182373,711.473877   C1241.286255,733.023560 1236.805054,751.991821 1219.801636,766.713196   C1229.785645,777.978210 1236.650146,790.572632 1239.271851,805.151367   C1240.326416,811.015564 1240.902222,817.045837 1240.914062,823.002075   C1240.945068,838.652588 1241.825806,854.450378 1240.053955,869.924561   C1236.346802,902.300659 1217.735107,923.821106 1187.788818,935.883667   C1180.549927,938.799500 1173.207764,941.474731 1166.057617,944.591858   C1149.769653,951.692322 1141.204102,964.309937 1141.072388,982.031921   C1140.828369,1014.860901 1141.107178,1047.693237 1140.978516,1080.523560   C1140.701904,1151.196289 1096.595459,1211.623047 1029.478516,1233.482788   C939.252991,1262.868896 841.407166,1204.771973 823.991394,1111.466919   C823.353699,1108.050171 822.788574,1104.619873 822.155579,1101.001343   C820.252563,1101.001343 818.596741,1101.001343 816.940918,1101.001343   C687.784363,1101.001343 558.627747,1101.052734 429.471375,1100.898438   C419.762146,1100.886963 410.054718,1099.410034 400.045044,1098.589600   C397.778534,1118.999268 391.720276,1139.643555 380.813965,1158.597656   C354.903595,1203.626953 316.312347,1231.120850 264.911743,1238.920532   C213.078842,1246.785767 167.970398,1231.455322 129.380508,1195.622070  M799.966248,479.655426   C800.268127,479.828674 800.570007,480.001953 800.815613,480.105255   C800.815613,480.105255 800.838013,480.192383 801.094482,480.803162   C804.375488,484.107239 807.549316,487.527374 810.966980,490.683380   C814.531433,493.974945 814.391785,496.287140 810.722778,499.865112   C795.238037,514.965942 780.136902,530.460144 764.244141,546.148743   C763.160645,547.565552 761.177490,548.958008 761.138245,550.403198   C760.864624,560.483826 760.993652,570.575256 760.993652,580.711731   C801.317444,580.711731 840.886414,580.711731 880.720520,580.711731   C880.825867,578.916992 880.985718,577.454590 880.986755,575.992065   C881.019775,529.170776 881.040283,482.349518 881.044617,435.528259   C881.044739,434.036865 880.855835,432.545471 880.856812,430.344757   C880.645020,429.207489 880.433228,428.070251 880.246216,426.082428   C878.517883,420.371094 876.789551,414.659729 874.997559,408.995056   C874.997559,408.995056 875.064941,408.956879 874.962524,408.391174   C874.706604,408.112793 874.450684,407.834412 874.241394,407.251221   C874.241394,407.251221 874.090027,406.982544 874.031128,406.273132   C872.731995,404.460754 871.432800,402.648376 870.072388,400.966705   C870.072388,400.966705 870.180298,400.870819 870.142761,400.280121   C869.779602,399.845886 869.416443,399.411621 869.010742,398.976501   C869.010742,398.976501 869.040344,398.945953 869.019409,398.310730   C868.336365,397.562439 867.653381,396.814178 866.998596,396.007446   C866.998596,396.007446 866.935852,396.024200 866.798889,395.453186   C866.211914,394.958038 865.624939,394.462891 865.000000,394.000000   C865.000000,394.000000 865.036194,393.969055 864.913513,393.463684   C864.628052,393.286865 864.342529,393.110046 864.017273,392.974548   C864.017273,392.974548 864.062439,392.924713 863.864319,392.371765   C863.287109,391.853912 862.709961,391.336060 861.817871,390.252899   C860.247009,388.770782 858.676147,387.288666 856.861267,385.230621   C855.908386,384.153900 854.955444,383.077179 853.874878,381.498962   C853.596558,381.314484 853.318176,381.130035 853.020813,381.006714   C853.020813,381.006714 853.057861,380.952209 852.978821,380.325073   C852.326172,379.535095 851.673584,378.745148 850.914856,377.508240   C850.782593,377.211487 850.564453,377.005951 850.055420,376.339752   C849.769165,376.078125 849.482971,375.816498 849.124451,374.971161   C848.737061,374.320831 848.349609,373.670471 847.936707,372.286804   C845.407349,365.075165 842.877930,357.863495 839.993347,349.638977   C835.765930,354.184845 831.742615,358.511292 827.337463,363.019836   C827.098511,363.191193 826.937988,363.418030 826.353943,363.959686   C826.161316,364.275970 825.968750,364.592255 825.218323,365.248810   C784.452759,405.975006 743.457458,446.474731 703.012695,487.517090   C680.741150,510.117737 654.546631,521.489014 622.680237,521.129333   C577.546021,520.619934 532.401794,521.000061 487.261871,520.999939   C485.325806,520.999939 483.389709,521.000000 481.437378,521.000000   C481.437378,534.700073 481.437378,547.727600 481.437378,560.998657   C483.365662,560.998657 484.856506,560.998718 486.347382,560.998718   C546.478455,560.997253 606.609497,560.986084 666.740540,561.000122   C683.898926,561.004089 698.591492,555.052246 710.734497,542.917358   C727.696960,525.966125 744.688477,509.043213 761.549194,491.991150   C769.721436,483.726135 777.624390,475.194794 785.760803,466.667145   C788.771606,469.068726 790.699463,470.606537 792.890930,472.654419   C793.216675,472.833832 793.542419,473.013275 793.895813,473.074402   C793.895813,473.074402 793.801697,473.151215 793.949707,473.669800   C794.249695,473.846405 794.549622,474.023041 794.919861,474.070312   C794.919861,474.070312 794.799500,474.155060 794.950256,474.672150   C795.250366,474.847443 795.550537,475.022705 795.923401,475.067444   C795.923401,475.067444 795.801819,475.154388 795.952332,475.671661   C796.252991,475.845612 796.553650,476.019592 796.926575,476.064240   C796.926575,476.064240 796.806091,476.150421 796.951904,476.669922   C797.252808,476.843750 797.553711,477.017609 797.932129,477.059662   C797.932129,477.059662 797.808838,477.150055 797.955750,477.669891   C798.259277,477.840027 798.562805,478.010193 798.939026,478.055969   C798.939026,478.055969 798.820801,478.138275 798.965149,478.657990   C799.266785,478.830139 799.568481,479.002289 799.942017,479.050842   C799.942017,479.050842 799.825378,479.133545 799.966248,479.655426  M794.326294,269.127136   C777.360474,283.378693 760.394714,297.630219 743.061401,312.190430   C762.256592,320.599670 773.967773,334.400269 779.133362,352.761078   C794.943604,337.089783 810.839294,321.333862 826.602051,305.709656   C822.917053,301.590820 818.931641,297.377594 815.236206,292.923676   C812.627380,289.779480 810.411926,286.308807 808.208313,282.214691   C806.072815,276.012634 803.937256,269.810608 801.643433,263.149017   C799.128845,265.332306 797.053101,267.134613 794.326294,269.127136  M766.821350,240.062698   C774.711548,233.480103 782.601746,226.897491 790.787292,220.068527   C782.897156,210.183365 773.352600,203.024872 761.359741,202.237076   C741.634644,200.941360 721.793213,201.418167 701.071533,201.017258   C694.468689,201.017258 687.865845,201.017258 681.145935,201.017258   C681.145935,218.376328 680.438782,235.219757 681.345459,251.975845   C682.245911,268.616455 689.940063,282.383698 703.120544,293.327118   C724.312073,275.496582 745.241943,257.886261 766.821350,240.062698  M287.930725,841.014709   C299.592468,841.011475 311.255859,841.101807 322.913940,840.893921   C324.478119,840.866089 326.966553,839.674866 327.407990,838.442444   C329.924164,831.417603 331.949341,824.216980 334.661957,816.516357   C337.030731,809.543884 339.271362,802.523926 341.827209,795.620728   C342.955750,792.572571 342.473083,790.636169 340.076935,788.275208   C323.121826,771.569885 306.321350,754.706909 289.551605,737.814697   C284.997772,733.227600 280.718750,728.367676 275.568390,722.832031   C260.142914,762.967773 245.276917,801.647888 230.209625,840.851746   C249.765015,840.851746 268.386047,840.851746 287.930725,841.014709  M1012.080872,781.017090   C928.623474,781.011230 845.166016,780.969727 761.708618,781.031677   C746.344849,781.043091 734.444824,787.733093 726.519104,800.943237   C722.923035,806.937012 720.883789,813.500732 721.205688,821.002869   C723.843933,821.002869 725.987061,821.002869 728.130188,821.002869   C841.405884,821.004395 954.681580,821.008362 1067.957275,821.000854   C1073.951660,821.000488 1079.946167,820.903687 1086.875366,821.010193   C1124.789917,821.010193 1162.704346,821.010193 1200.866821,821.010193   C1200.866821,819.256287 1200.974976,818.102844 1200.850586,816.974976   C1198.611938,796.660217 1181.723999,781.169617 1161.369629,781.036316   C1139.389771,780.892334 1117.408325,780.975403 1095.427490,780.996948   C1067.955933,781.023926 1040.484375,781.089111 1012.080872,781.017090  M837.955322,226.661026   C838.225098,227.242142 838.494873,227.823273 838.683289,228.710632   C838.683289,228.710632 838.830688,228.991119 838.791016,229.854340   C839.556702,237.614441 840.426880,245.365936 841.065491,253.136475   C842.275208,267.855591 855.686829,280.731750 870.226807,280.985657   C887.218750,281.282379 900.903870,268.061646 900.966064,250.980759   C901.071167,222.154541 901.015869,193.327652 900.988098,164.501083   C900.976074,152.012314 900.864685,139.523651 900.886658,126.210876   C898.218445,99.333160 878.359802,81.045845 851.552429,81.019684   C791.234192,80.960823 730.915833,80.959572 670.597595,81.015312   C642.055542,81.041695 621.027771,102.134010 621.001343,130.555389   C620.993286,139.219894 620.984863,147.884476 621.017578,156.548859   C621.022949,157.967911 621.241333,159.386169 621.377625,160.997849   C623.880371,160.997849 625.873474,160.997681 627.866638,160.997864   C669.856140,161.001938 711.846924,160.814911 753.834656,161.089706   C775.270935,161.229996 794.118652,168.835602 810.397644,182.840546   C823.934021,194.486008 832.631775,209.181427 837.955322,226.661026  M357.811829,1055.329102   C357.396271,1054.619873 357.033173,1053.873291 356.557648,1053.206909   C337.326508,1026.260986 318.020386,999.368286 298.886841,972.353333   C293.552063,964.821106 286.613617,960.972473 277.401093,960.991882   C257.080688,961.034546 236.758820,961.135376 216.440460,960.927734   C209.969727,960.861633 204.402344,962.708862 199.146973,966.260010   C188.807281,973.246460 178.542770,980.363586 167.955505,986.958496   C158.561615,992.809937 151.203781,1000.633606 144.828796,1009.404541   C124.792976,1036.970703 117.589500,1067.531616 122.790932,1101.366455   C129.929947,1147.805176 168.825974,1188.931885 215.751083,1198.107178   C228.161209,1201.039429 240.629593,1201.518921 253.354706,1200.217896   C279.999542,1197.493530 303.121185,1187.020752 322.509186,1168.861816   C349.552338,1143.532959 362.091278,1111.900024 360.825989,1074.934204   C360.609222,1068.600952 358.873932,1062.319580 357.811829,1055.329102  M880.935059,680.045654   C880.935059,660.465332 880.935059,640.884949 880.935059,621.337830   C840.606812,621.337830 801.030273,621.337830 760.999084,621.337830   C760.999084,628.297546 761.025269,634.929993 760.994568,641.562195   C760.870300,668.370056 742.133972,693.097473 716.024597,698.719788   C704.970520,701.100220 693.242859,700.819275 681.814758,700.909241   C647.637817,701.178467 621.028503,727.605713 621.006775,761.818115   C620.982788,799.645081 621.001831,837.471985 621.002075,875.298950   C621.002075,877.062622 621.002014,878.826294 621.002014,880.705200   C641.296326,880.705200 660.874573,880.705200 680.996521,880.705200   C680.996521,878.633850 680.996338,876.847534 680.996582,875.061218   C680.998962,856.564331 680.708435,838.060486 681.152771,819.574219   C681.322510,812.512573 682.339844,805.235962 684.400635,798.494446   C695.272705,762.927917 725.212463,741.105652 762.486877,740.998413   C781.981323,740.942383 801.475769,740.877625 821.903931,740.954346   C835.023499,740.965088 848.144470,741.101318 861.262146,740.947693   C872.157410,740.820190 880.709595,732.638428 880.907898,721.816528   C881.157227,708.207275 880.876282,694.588318 880.935059,680.045654  M1097.960693,1055.194946   C1087.122070,1003.237976 1041.382812,963.094910 985.185730,961.116638   C957.520996,960.142761 932.011597,967.595947 909.950012,984.516785   C872.288208,1013.402649 856.214417,1051.989014 862.441284,1098.869507   C866.573120,1129.977783 881.978210,1155.580811 906.708557,1175.137085   C921.253174,1186.638794 937.483215,1194.836792 956.685852,1198.322632   C971.963928,1201.862793 987.343628,1202.005249 1002.653503,1198.934937   C1040.492798,1191.346924 1068.717041,1170.508301 1087.205200,1136.617310   C1095.371704,1121.646973 1100.031494,1105.449097 1100.643433,1088.544556   C1101.034790,1077.740356 1098.913574,1066.845093 1097.960693,1055.194946  M921.007385,553.944763   C921.005127,608.880554 920.999451,663.816406 921.002991,718.752197   C921.003967,732.964844 929.031555,740.987000 943.248230,740.988892   C995.520630,740.996033 1047.793091,740.997437 1100.065430,740.987488   C1101.723755,740.987183 1103.381958,740.839966 1105.775757,740.890137   C1106.520386,740.867371 1107.265137,740.844543 1108.659180,740.998596   C1109.102295,740.953247 1109.545288,740.907837 1110.921509,740.971130   C1133.588135,740.983826 1156.254761,741.013916 1178.921387,741.002747   C1192.808472,740.995850 1200.987915,732.856384 1200.990845,719.009827   C1201.005981,648.176514 1200.999023,577.343262 1200.999634,506.509979   C1200.999634,504.760773 1200.999512,503.011536 1200.999512,501.318115   C1107.275635,501.318115 1014.353577,501.318115 921.159790,501.318115   C921.159790,518.766846 921.159790,535.895203 921.007385,553.944763  M1164.740845,902.009888   C1167.515625,900.892334 1170.263794,899.702271 1173.070190,898.671021   C1180.564941,895.916870 1187.103882,891.790222 1192.124634,885.494385   C1197.752686,878.437256 1200.789917,870.473938 1200.851318,861.203369   C1178.538696,861.203369 1156.750854,861.203369 1134.040649,861.057739   C1133.542114,861.040100 1133.043457,861.007080 1132.544922,861.007080   C996.711731,860.998779 860.878479,860.991943 725.045288,861.000793   C723.776672,861.000854 722.507996,861.212097 720.994141,861.346558   C720.994141,863.472961 720.994202,865.285400 720.994202,867.097900   C720.993408,895.097900 721.086487,923.098206 720.969055,951.097717   C720.806458,989.847412 689.719604,1020.894592 650.939636,1020.959534   C594.439880,1021.054138 537.939514,1021.081726 481.439972,1020.930908   C462.508606,1020.880310 446.871094,1013.235657 434.916656,998.530029   C430.405579,992.980896 426.410400,987.008545 422.246948,981.181213   C401.235077,951.772461 380.189697,922.387207 359.287201,892.900818   C354.133057,885.630188 347.688538,881.015320 338.557159,881.010132   C290.057220,880.982605 241.556915,880.921570 193.057999,881.144531   C188.922440,881.163513 184.482346,882.545959 180.731354,884.401794   C173.133774,888.160889 165.909470,892.675110 158.535583,896.885498   C134.821716,910.425781 111.082878,923.922668 87.409424,937.533264   C76.889137,943.581787 72.467773,953.982910 75.634064,964.533813   C80.406609,980.437134 97.613632,985.879578 112.394600,976.065186   C134.737793,961.229492 157.003159,946.276550 179.352066,931.449463   C189.897202,924.453369 201.576141,921.023071 214.237717,921.015503   C235.737686,921.002625 257.239349,920.844116 278.737183,921.058350   C300.352722,921.273743 317.714569,930.290833 330.336731,947.800781   C355.170380,982.251343 379.810364,1016.841858 404.453186,1051.429443   C409.082855,1057.927246 415.134460,1061.042969 423.102478,1061.040527   C554.269043,1061.001831 685.435547,1061.012939 816.602112,1061.012817   C818.381653,1061.012817 820.161133,1061.012817 821.724976,1061.012817   C833.790649,994.899780 869.545959,948.481079 933.789551,928.549133   C998.203125,908.564575 1053.946411,926.983704 1101.062744,974.531555   C1101.347656,973.201843 1101.653320,972.095276 1101.816162,970.968079   C1105.587402,944.858337 1118.897583,925.092163 1141.761353,912.066772   C1148.801147,908.056274 1156.566772,905.319458 1164.740845,902.009888  M411.824005,897.691101   C429.311493,922.207397 446.821960,946.707397 464.267273,971.253723   C467.803864,976.229858 472.262177,980.244202 478.360962,980.604614   C487.883881,981.167480 497.464600,980.753601 507.414948,980.753601   C497.070190,955.392151 498.713074,931.438660 514.794739,909.511963   C531.039185,887.363464 553.983093,879.353027 580.998352,881.085510   C580.998352,878.687744 580.998230,876.881836 580.998413,875.075867   C581.002136,836.585022 580.815552,798.092896 581.060120,759.603577   C581.338562,715.797119 611.343140,676.960815 653.381165,664.869202   C668.561523,660.502747 683.999084,661.046448 699.463684,660.991150   C712.653931,660.943970 720.947205,652.670593 720.986572,639.478699   C721.035339,623.149414 720.998291,606.819824 720.998291,590.490356   C720.998291,589.105896 720.998291,587.721436 720.998291,586.022888   C698.687927,598.322876 683.779541,601.201294 656.742310,601.091431   C589.259399,600.817200 521.774597,601.032959 454.290771,600.920593   C450.300049,600.913940 448.321564,601.742737 446.932434,605.947083   C424.755157,673.070496 402.350128,740.118591 380.002380,807.185608   C375.555725,820.530273 371.131561,833.882507 366.615417,847.476868   C378.292084,853.188049 386.699463,861.964722 393.737457,872.306763   C399.446533,880.696045 405.486145,888.860291 411.824005,897.691101  M368.960602,420.487854   C362.721588,439.091614 356.568817,457.724884 350.222870,476.292114   C341.210602,502.660675 323.997894,521.866150 299.103333,534.275391   C292.735687,537.449524 286.406860,540.701538 279.687927,544.106384   C286.956207,552.848633 293.969849,561.073669 300.751862,569.485352   C315.408875,587.664429 319.150757,607.891479 311.158936,629.908752   C305.370300,645.856323 299.203094,661.671265 292.908752,677.427124   C291.426910,681.136353 291.529083,683.413025 294.573792,686.407227   C314.530914,706.033630 334.238678,725.913452 354.042816,745.695557   C354.920441,746.572144 355.943176,747.303467 357.400604,748.522644   C374.071442,698.513428 390.544647,649.097107 407.044525,599.600769   C405.637390,599.070862 404.723572,598.686096 403.784302,598.379028   C374.008820,588.642944 357.163177,561.478149 361.927368,530.869446   C366.411713,502.058624 391.780762,481.119537 422.355103,481.012634   C430.337738,480.984711 438.320587,481.008392 446.591217,481.008392   C452.514862,463.167328 458.505035,445.573242 464.184448,427.879456   C468.775513,413.576385 459.502869,401.080475 444.442627,401.012939   C427.945374,400.938965 411.447601,400.994080 394.950043,400.993164   C388.471832,400.992828 381.993652,400.993134 375.486115,400.993134   C373.293579,407.460419 371.216125,413.588379 368.960602,420.487854  M1200.998413,457.286560   C1200.998535,452.287628 1201.028442,447.288452 1200.992920,442.289764   C1200.901001,429.361603 1192.599121,421.037231 1179.757080,421.017700   C1164.093628,420.993835 1148.430298,421.006409 1132.766846,421.006836   C1069.113403,421.008484 1005.459900,421.003143 941.806458,421.022186   C931.085571,421.025391 922.678894,427.426117 921.437927,437.755096   C920.537842,445.246765 921.262146,452.933655 921.262146,461.001648   C923.590576,461.001648 925.555725,461.001678 927.520935,461.001648   C1016.669128,461.000427 1105.817261,460.999390 1194.965454,460.996613   C1196.298340,460.996582 1197.768677,461.317444 1198.920044,460.854645   C1199.816772,460.494171 1200.316772,459.146240 1200.998413,457.286560  M598.500000,921.001892   C589.004822,921.006165 579.506165,920.848145 570.015259,921.051086   C553.987488,921.393860 541.177063,934.635864 541.033508,950.749817   C540.891602,966.673462 553.471680,980.717651 568.955444,980.887939   C597.103943,981.197632 625.259949,981.118958 653.409790,980.863708   C664.943176,980.759155 678.453430,970.341614 679.660706,959.138794   C680.998962,946.720581 679.966797,934.046997 679.966797,921.001892   C653.395447,921.001892 626.447693,921.001892 598.500000,921.001892  M549.500000,441.001648   C535.014160,441.002655 520.527649,441.078217 506.043060,440.943604   C503.039734,440.915649 501.699585,441.883423 500.782013,444.804413   C497.443817,455.431061 493.767212,465.951172 490.251312,476.522461   C489.814789,477.834869 489.577026,479.213348 489.182617,480.825104   C490.742859,480.894592 491.729645,480.976898 492.716400,480.976990   C538.338379,480.980835 583.960510,481.016571 629.582214,480.905945   C633.523682,480.896393 637.505981,480.128937 641.395752,479.347229   C664.053772,474.793854 676.173279,456.303467 691.128479,441.001648   C644.252319,441.001648 597.376160,441.001648 549.500000,441.001648  M299.541931,485.027466   C305.823212,478.386383 310.079224,470.572510 312.941132,461.943848   C318.319580,445.727722 323.711700,429.516144 329.097229,413.302368   C330.419312,409.322235 331.738068,405.340973 333.109344,401.206421   C272.308502,398.446869 233.468735,459.427216 256.533478,510.866547   C263.501190,507.388092 270.707001,504.322815 277.355927,500.330170   C284.844818,495.833008 291.832001,490.500336 299.541931,485.027466  M441.014404,550.476013   C441.014404,540.726196 441.014404,530.976440 441.014404,520.997681   C433.759796,520.997681 427.120605,520.863525 420.488892,521.028687   C410.162048,521.285889 401.706177,529.419067 401.033783,539.506592   C400.351044,549.749329 407.319397,559.345764 417.551819,560.561401   C425.191040,561.468933 433.024628,560.740295 441.014404,560.740295   C441.014404,557.414185 441.014404,554.439514 441.014404,550.476013  z"
   id="path4" />
<path
   fill="#000000"
   opacity="1.000000"
   stroke="none"
   d=" M1158.000000,240.999725   C1118.859863,240.999725 1080.219727,240.999725 1041.290039,240.999725   C1041.290039,227.719620 1041.290039,214.648026 1041.290039,201.287369   C1094.285400,201.287369 1147.352417,201.287369 1200.709961,201.287369   C1200.709961,214.280350 1200.709961,227.351944 1200.709961,240.999725   C1186.692017,240.999725 1172.596069,240.999725 1158.000000,240.999725  z"
   id="path6" />
<path
   fill="#000000"
   opacity="1.000000"
   stroke="none"
   d=" M1007.088379,320.999756   C1004.945984,320.999756 1003.292114,320.999756 1001.320740,320.999756   C1001.320740,307.779694 1001.320740,294.707306 1001.320740,281.316620   C1054.228638,281.316620 1107.297974,281.316620 1160.683838,281.316620   C1160.683838,294.227478 1160.683838,307.300323 1160.683838,320.999756   C1109.747803,320.999756 1058.662354,320.999756 1007.088379,320.999756  z"
   id="path8" />
<path
   fill="#000000"
   opacity="1.000000"
   stroke="none"
   d=" M1121.000244,124.166397   C1120.545776,119.721313 1123.544922,121.047783 1125.330811,121.044136   C1155.328613,120.982796 1185.326538,121.000305 1215.324463,121.000298   C1223.651489,121.000298 1231.978638,121.000290 1240.652588,121.000290   C1240.652588,134.163116 1240.652588,147.237106 1240.652588,160.656189   C1201.159180,160.656189 1161.421875,160.656189 1121.000122,160.656189   C1121.000122,148.819138 1121.000122,136.735504 1121.000244,124.166397  z"
   id="path10" />
<path
   fill="#5CA4CB"
   opacity="1.000000"
   stroke="none"
   d=" M1164.000000,901.999390   C1156.566772,905.319458 1148.801147,908.056274 1141.761353,912.066772   C1118.897583,925.092163 1105.587402,944.858337 1101.816162,970.968079   C1101.653320,972.095276 1101.347656,973.201843 1101.062744,974.531555   C1053.946411,926.983704 998.203125,908.564575 933.789551,928.549133   C869.545959,948.481079 833.790649,994.899780 821.724976,1061.012817   C820.161133,1061.012817 818.381653,1061.012817 816.602112,1061.012817   C685.435547,1061.012939 554.269043,1061.001831 423.102478,1061.040527   C415.134460,1061.042969 409.082855,1057.927246 404.453186,1051.429443   C379.810364,1016.841858 355.170380,982.251343 330.336731,947.800781   C317.714569,930.290833 300.352722,921.273743 278.737183,921.058350   C257.239349,920.844116 235.737686,921.002625 214.237717,921.015503   C201.576141,921.023071 189.897202,924.453369 179.352066,931.449463   C157.003159,946.276550 134.737793,961.229492 112.394600,976.065186   C97.613632,985.879578 80.406609,980.437134 75.634064,964.533813   C72.467773,953.982910 76.889137,943.581787 87.409424,937.533264   C111.082878,923.922668 134.821716,910.425781 158.535583,896.885498   C165.909470,892.675110 173.133774,888.160889 180.731354,884.401794   C184.482346,882.545959 188.922440,881.163513 193.057999,881.144531   C241.556915,880.921570 290.057220,880.982605 338.557159,881.010132   C347.688538,881.015320 354.133057,885.630188 359.287201,892.900818   C380.189697,922.387207 401.235077,951.772461 422.246948,981.181213   C426.410400,987.008545 430.405579,992.980896 434.916656,998.530029   C446.871094,1013.235657 462.508606,1020.880310 481.439972,1020.930908   C537.939514,1021.081726 594.439880,1021.054138 650.939636,1020.959534   C689.719604,1020.894592 720.806458,989.847412 720.969055,951.097717   C721.086487,923.098206 720.993408,895.097900 720.994202,867.097900   C720.994202,865.285400 720.994141,863.472961 720.994141,861.346558   C722.507996,861.212097 723.776672,861.000854 725.045288,861.000793   C860.878479,860.991943 996.711731,860.998779 1132.544922,861.007080   C1133.043457,861.007080 1133.542114,861.040100 1134.552734,861.465271   C1141.940552,870.316650 1149.067505,878.572388 1155.588013,887.282043   C1158.948730,891.771057 1161.230591,897.067688 1164.000000,901.999390  z"
   id="path12" />
<path
   fill="#FFFFFF"
   opacity="1.000000"
   stroke="none"
   d=" M411.601562,897.407715   C405.486145,888.860291 399.446533,880.696045 393.737457,872.306763   C386.699463,861.964722 378.292084,853.188049 366.615417,847.476868   C371.131561,833.882507 375.555725,820.530273 380.002380,807.185608   C402.350128,740.118591 424.755157,673.070496 446.932434,605.947083   C448.321564,601.742737 450.300049,600.913940 454.290771,600.920593   C521.774597,601.032959 589.259399,600.817200 656.742310,601.091431   C683.779541,601.201294 698.687927,598.322876 720.998291,586.022888   C720.998291,587.721436 720.998291,589.105896 720.998291,590.490356   C720.998291,606.819824 721.035339,623.149414 720.986572,639.478699   C720.947205,652.670593 712.653931,660.943970 699.463684,660.991150   C683.999084,661.046448 668.561523,660.502747 653.381165,664.869202   C611.343140,676.960815 581.338562,715.797119 581.060120,759.603577   C580.815552,798.092896 581.002136,836.585022 580.998413,875.075867   C580.998230,876.881836 580.998352,878.687744 580.998352,881.085510   C553.983093,879.353027 531.039185,887.363464 514.794739,909.511963   C498.713074,931.438660 497.070190,955.392151 507.414948,980.753601   C497.464600,980.753601 487.883881,981.167480 478.360962,980.604614   C472.262177,980.244202 467.803864,976.229858 464.267273,971.253723   C446.821960,946.707397 429.311493,922.207397 411.601562,897.407715  z"
   id="path14" />
<path
   fill="#01B279"
   opacity="1.000000"
   stroke="none"
   d=" M1108.009766,740.821716   C1107.265137,740.844543 1106.520386,740.867371 1105.344482,740.479004   C1104.224976,739.407471 1103.650146,738.493835 1102.830566,738.126282   C1095.613770,734.890198 1088.090698,732.236389 1081.161255,728.481812   C1067.093628,720.859558 1053.318359,712.694885 1039.497681,704.625061   C1038.378052,703.971375 1037.834961,702.330627 1037.488037,701.090698   C1078.847778,701.032837 1119.743530,701.032837 1160.999756,701.032837   C1160.999756,688.004150 1161.013794,675.706848 1160.997314,663.409546   C1160.931885,614.903137 1131.749146,576.667847 1084.943359,564.011719   C1081.643799,563.119629 1080.814697,561.647339 1080.936523,558.510193   C1081.159790,552.765930 1081.000122,547.006775 1081.000122,541.291992   C1067.300781,541.291992 1054.384399,541.291992 1040.997925,541.291992   C1040.997925,547.533752 1040.868164,553.493408 1041.056641,559.442993   C1041.141479,562.118286 1040.112915,563.117554 1037.640991,563.906494   C1030.846924,566.074951 1023.895325,568.040649 1017.498352,571.111938   C991.210022,583.733459 974.469299,604.804199 964.620361,631.828003   C963.488708,630.858215 962.451050,630.173767 961.850952,629.215332   C955.985779,619.848206 950.228394,610.413635 944.372986,601.040405   C934.897095,585.871704 927.380920,569.762329 921.159790,553.023621   C921.159790,535.895203 921.159790,518.766846 921.159790,501.318115   C1014.353577,501.318115 1107.275635,501.318115 1200.999512,501.318115   C1200.999512,503.011536 1200.999634,504.760773 1200.999634,506.509979   C1200.999023,577.343262 1201.005981,648.176514 1200.990845,719.009827   C1200.987915,732.856384 1192.808472,740.995850 1178.921387,741.002747   C1156.254761,741.013916 1133.588135,740.983826 1110.303223,740.719177   C1109.126587,740.585388 1108.568115,740.703552 1108.009766,740.821716  z"
   id="path16" />
<path
   fill="#575757"
   opacity="1.000000"
   stroke="none"
   d=" M955.992188,1197.936890   C937.483215,1194.836792 921.253174,1186.638794 906.708557,1175.137085   C881.978210,1155.580811 866.573120,1129.977783 862.441284,1098.869507   C856.214417,1051.989014 872.288208,1013.402649 909.950012,984.516785   C932.011597,967.595947 957.520996,960.142761 985.185730,961.116638   C1041.382812,963.094910 1087.122070,1003.237976 1097.597656,1055.654785   C1094.932007,1060.438477 1092.864624,1064.908691 1090.283691,1069.059570   C1081.816284,1082.678223 1073.818604,1096.660156 1064.381104,1109.582886   C1056.199219,1120.786255 1047.027832,1131.500732 1036.974243,1141.040771   C1025.744995,1151.696289 1013.547119,1161.534912 1000.810364,1170.339478   C988.488037,1178.857544 974.917053,1185.562500 961.964050,1193.181885   C959.792480,1194.459473 957.973877,1196.336792 955.992188,1197.936890  M948.315857,1030.772949   C915.020691,1052.580566 912.053833,1098.855957 939.812256,1124.361450   C958.149231,1141.210205 979.519409,1145.774658 1002.677429,1136.748047   C1025.627197,1127.802734 1038.767822,1110.071899 1040.699707,1085.586060   C1042.618530,1061.267456 1032.322021,1041.930786 1011.363586,1029.463989   C990.726440,1017.188416 969.562622,1018.086304 948.315857,1030.772949  z"
   id="path18" />
<path
   fill="#575757"
   opacity="1.000000"
   stroke="none"
   d=" M820.970215,740.816833   C801.475769,740.877625 781.981323,740.942383 762.486877,740.998413   C725.212463,741.105652 695.272705,762.927917 684.400635,798.494446   C682.339844,805.235962 681.322510,812.512573 681.152771,819.574219   C680.708435,838.060486 680.998962,856.564331 680.996582,875.061218   C680.996338,876.847534 680.996521,878.633850 680.996521,880.705200   C660.874573,880.705200 641.296326,880.705200 621.002014,880.705200   C621.002014,878.826294 621.002075,877.062622 621.002075,875.298950   C621.001831,837.471985 620.982788,799.645081 621.006775,761.818115   C621.028503,727.605713 647.637817,701.178467 681.814758,700.909241   C693.242859,700.819275 704.970520,701.100220 716.024597,698.719788   C742.133972,693.097473 760.870300,668.370056 760.994568,641.562195   C761.025269,634.929993 760.999084,628.297546 760.999084,621.337830   C801.030273,621.337830 840.606812,621.337830 880.935059,621.337830   C880.935059,640.884949 880.935059,660.465332 880.556519,680.579102   C879.061646,682.522339 877.919861,683.912720 876.833069,685.344849   C870.249695,694.020569 864.180603,703.150635 856.978210,711.276733   C847.738647,721.701050 836.506958,729.975159 824.801392,737.539368   C823.402466,738.443298 822.241516,739.715393 820.970215,740.816833  z"
   id="path20" />
<path
   fill="#575757"
   opacity="1.000000"
   stroke="none"
   d=" M214.980591,1197.870605   C168.825974,1188.931885 129.929947,1147.805176 122.790932,1101.366455   C117.589500,1067.531616 124.792976,1036.970703 144.828796,1009.404541   C151.203781,1000.633606 158.561615,992.809937 167.955505,986.958496   C178.542770,980.363586 188.807281,973.246460 199.146973,966.260010   C204.402344,962.708862 209.969727,960.861633 216.440460,960.927734   C236.758820,961.135376 257.080688,961.034546 277.401093,960.991882   C286.613617,960.972473 293.552063,964.821106 298.886841,972.353333   C318.020386,999.368286 337.326508,1026.260986 356.557648,1053.206909   C357.033173,1053.873291 357.396271,1054.619873 357.479675,1055.713623   C356.426758,1056.922852 355.526489,1057.649048 355.012482,1058.586914   C348.669159,1070.160156 343.267670,1082.369995 335.856293,1093.207275   C326.642700,1106.679810 316.109131,1119.304932 305.507416,1131.752441   C299.069092,1139.311646 291.843079,1146.344849 284.217133,1152.711304   C274.576355,1160.759766 264.552216,1168.489136 253.985535,1175.249756   C243.060547,1182.239746 231.268372,1187.869995 219.904800,1194.183716   C218.128860,1195.170532 216.615433,1196.629883 214.980591,1197.870605  M214.701691,1027.110352   C176.669739,1046.886353 169.131012,1094.904419 199.952515,1124.383423   C217.946594,1141.593750 239.644867,1145.727417 262.777313,1136.705933   C285.531830,1127.831665 298.679352,1110.227905 300.706512,1085.986084   C304.578156,1039.686401 257.607208,1007.433167 214.701691,1027.110352  z"
   id="path22" />
<path
   fill="#5DA3CA"
   opacity="1.000000"
   stroke="none"
   d=" M369.049622,420.102112   C371.216125,413.588379 373.293579,407.460419 375.486115,400.993134   C381.993652,400.993134 388.471832,400.992828 394.950043,400.993164   C411.447601,400.994080 427.945374,400.938965 444.442627,401.012939   C459.502869,401.080475 468.775513,413.576385 464.184448,427.879456   C458.505035,445.573242 452.514862,463.167328 446.591217,481.008392   C438.320587,481.008392 430.337738,480.984711 422.355103,481.012634   C391.780762,481.119537 366.411713,502.058624 361.927368,530.869446   C357.163177,561.478149 374.008820,588.642944 403.784302,598.379028   C404.723572,598.686096 405.637390,599.070862 407.044525,599.600769   C390.544647,649.097107 374.071442,698.513428 357.400604,748.522644   C355.943176,747.303467 354.920441,746.572144 354.042816,745.695557   C334.238678,725.913452 314.530914,706.033630 294.573792,686.407227   C291.529083,683.413025 291.426910,681.136353 292.908752,677.427124   C299.203094,661.671265 305.370300,645.856323 311.158936,629.908752   C319.150757,607.891479 315.408875,587.664429 300.751862,569.485352   C293.969849,561.073669 286.956207,552.848633 279.687927,544.106384   C286.406860,540.701538 292.735687,537.449524 299.103333,534.275391   C323.997894,521.866150 341.210602,502.660675 350.222870,476.292114   C356.568817,457.724884 362.721588,439.091614 369.049622,420.102112  z"
   id="path24" />
<path
   fill="#0171AE"
   opacity="1.000000"
   stroke="none"
   d=" M838.830688,228.991119   C838.830688,228.991119 838.683289,228.710632 838.792053,228.216553   C838.613037,227.151123 838.325256,226.579773 838.037476,226.008423   C832.631775,209.181427 823.934021,194.486008 810.397644,182.840546   C794.118652,168.835602 775.270935,161.229996 753.834656,161.089706   C711.846924,160.814911 669.856140,161.001938 627.866638,160.997864   C625.873474,160.997681 623.880371,160.997849 621.377625,160.997849   C621.241333,159.386169 621.022949,157.967911 621.017578,156.548859   C620.984863,147.884476 620.993286,139.219894 621.001343,130.555389   C621.027771,102.134010 642.055542,81.041695 670.597595,81.015312   C730.915833,80.959572 791.234192,80.960823 851.552429,81.019684   C878.359802,81.045845 898.218445,99.333160 900.590698,126.943314   C900.198914,134.648605 900.203735,141.624771 899.974670,148.593246   C899.799805,153.910828 900.601685,159.076019 897.323181,164.308838   C891.935791,172.907669 888.567932,182.805588 882.939636,191.212555   C871.965759,207.604202 859.546570,222.947449 845.026184,236.443085   C844.059631,237.341385 842.935852,238.070465 842.134460,238.686630   C840.895935,235.052002 839.863342,232.021561 838.830688,228.991119  M824.713745,120.986465   C821.390320,120.463257 820.931458,122.298561 820.963501,125.083496   C821.076294,134.903168 820.999573,144.725021 820.995178,154.546051   C820.994263,156.618530 820.995117,158.691025 820.995117,160.648590   C834.783142,160.648590 847.687561,160.648590 860.553589,160.648590   C860.553589,147.263550 860.553589,134.240860 860.553589,121.003403   C848.625671,121.003403 837.147644,121.003403 824.713745,120.986465  z"
   id="path26" />
<path
   fill="#0171AE"
   opacity="1.000000"
   stroke="none"
   d=" M826.855835,363.700348   C826.937988,363.418030 827.098511,363.191193 827.953979,362.973419   C830.517090,362.353455 832.463623,361.779907 834.066345,361.307648   C835.208191,362.527863 836.504700,364.098267 837.992859,365.459045   C840.081238,367.368439 842.271240,369.174225 844.500122,370.919098   C845.555664,371.745331 846.802185,372.327454 847.962219,373.020142   C848.349609,373.670471 848.737061,374.320831 849.193848,375.582275   C849.595642,376.426178 849.927979,376.658905 850.260315,376.891663   C850.564453,377.005951 850.782593,377.211487 850.955200,378.093323   C851.683044,379.436340 852.370483,380.194275 853.057861,380.952209   C853.057861,380.952209 853.020813,381.006714 853.105591,381.218750   C853.461060,381.620697 853.731812,381.810577 854.002563,382.000488   C854.955444,383.077179 855.908386,384.153900 856.947815,385.890503   C858.349731,388.368011 859.665161,390.185577 860.993896,392.251465   C861.007324,392.499725 861.032776,392.996338 860.738159,393.261749   C860.500793,395.463806 860.669128,397.404755 860.594177,399.336273   C860.377747,404.917969 861.208313,410.875122 859.515503,415.985107   C857.062988,423.388153 852.592529,430.022156 846.875610,435.672577   C833.057861,449.329315 819.395142,463.142792 805.605408,476.828094   C804.244080,478.179138 802.437805,479.081696 800.838013,480.192383   C800.838013,480.192383 800.815613,480.105255 800.778198,479.874939   C800.435669,479.474274 800.130493,479.303894 799.825378,479.133545   C799.825378,479.133545 799.942017,479.050842 799.840393,478.847351   C799.432800,478.475342 799.126770,478.306824 798.820801,478.138275   C798.820801,478.138275 798.939026,478.055969 798.836792,477.851776   C798.425964,477.481720 798.117432,477.315887 797.808838,477.150055   C797.808838,477.150055 797.932129,477.059662 797.831665,476.857178   C797.422852,476.486572 797.114441,476.318481 796.806091,476.150421   C796.806091,476.150421 796.926575,476.064240 796.828247,475.860199   C796.420532,475.488892 796.111145,475.321655 795.801819,475.154419   C795.801819,475.154388 795.923401,475.067444 795.825562,474.863403   C795.418274,474.491241 795.108887,474.323151 794.799500,474.155060   C794.799500,474.155060 794.919861,474.070312 794.824036,473.865265   C794.419373,473.490570 794.110535,473.320892 793.801697,473.151215   C793.801697,473.151215 793.895813,473.074402 793.788696,472.848145   C793.330139,472.462708 792.978760,472.303528 792.627380,472.144348   C790.699463,470.606537 788.771606,469.068726 785.760803,466.667145   C777.624390,475.194794 769.721436,483.726135 761.549194,491.991150   C744.688477,509.043213 727.696960,525.966125 710.734497,542.917358   C698.591492,555.052246 683.898926,561.004089 666.740540,561.000122   C606.609497,560.986084 546.478455,560.997253 486.347382,560.998718   C484.856506,560.998718 483.365662,560.998657 481.437378,560.998657   C481.437378,547.727600 481.437378,534.700073 481.437378,521.000000   C483.389709,521.000000 485.325806,520.999939 487.261871,520.999939   C532.401794,521.000061 577.546021,520.619934 622.680237,521.129333   C654.546631,521.489014 680.741150,510.117737 703.012695,487.517090   C743.457458,446.474731 784.452759,405.975006 825.780762,364.988007   C826.514099,364.384918 826.684998,364.042633 826.855835,363.700348  z"
   id="path28" />
<path
   fill="#348DBE"
   opacity="1.000000"
   stroke="none"
   d=" M1085.940552,820.851807   C1079.946167,820.903687 1073.951660,821.000488 1067.957275,821.000854   C954.681580,821.008362 841.405884,821.004395 728.130188,821.002869   C725.987061,821.002869 723.843933,821.002869 721.205688,821.002869   C720.883789,813.500732 722.923035,806.937012 726.519104,800.943237   C734.444824,787.733093 746.344849,781.043091 761.708618,781.031677   C845.166016,780.969727 928.623474,781.011230 1012.803040,781.323486   C1017.544128,783.029175 1021.781616,783.997253 1025.543823,785.903320   C1041.088867,793.778564 1056.614746,801.711365 1071.873779,810.120178   C1076.982544,812.935486 1081.275024,817.232239 1085.940552,820.851807  z"
   id="path30" />
<path
   fill="#01659C"
   opacity="1.000000"
   stroke="none"
   d=" M800.966248,480.497772   C802.437805,479.081696 804.244080,478.179138 805.605408,476.828094   C819.395142,463.142792 833.057861,449.329315 846.875610,435.672577   C852.592529,430.022156 857.062988,423.388153 859.515503,415.985107   C861.208313,410.875122 860.377747,404.917969 860.594177,399.336273   C860.669128,397.404755 860.500793,395.463806 861.116272,393.260895   C862.546753,392.971313 863.304626,392.947998 864.062439,392.924683   C864.062439,392.924713 864.017273,392.974548 864.118652,393.193298   C864.492126,393.597687 864.764160,393.783386 865.036194,393.969055   C865.036194,393.969055 865.000000,394.000000 865.033936,394.307007   C865.690552,395.084106 866.313171,395.554138 866.935852,396.024200   C866.935852,396.024200 866.998596,396.007446 866.989258,396.386658   C867.666687,397.492554 868.353516,398.219269 869.040344,398.945953   C869.040344,398.945953 869.010742,398.976501 869.025757,399.286926   C869.420654,400.021820 869.800476,400.446320 870.180298,400.870850   C870.180298,400.870819 870.072388,400.966705 870.181885,401.256470   C871.557617,403.358307 872.823792,405.170410 874.090027,406.982544   C874.090027,406.982544 874.241394,407.251221 874.234131,407.706360   C874.506287,408.426636 874.785583,408.691742 875.064941,408.956879   C875.064941,408.956879 874.997559,408.995056 875.000610,409.380310   C876.742859,415.488007 878.482117,421.210480 880.221436,426.932983   C880.433228,428.070251 880.645020,429.207489 880.561768,431.021423   C880.179138,433.517822 880.016174,435.337494 880.015076,437.157257   C879.998840,463.621124 880.016541,490.085052 879.977417,516.548828   C879.974792,518.338745 880.202515,520.584290 879.273987,521.845520   C871.726868,532.097168 864.893982,543.134277 855.950989,552.029297   C845.981567,561.945129 834.076294,569.929749 822.866760,578.564148   C821.470642,579.639587 819.178467,579.926941 817.297424,579.938782   C800.820557,580.042786 784.340088,579.838684 767.867126,580.112366   C763.550415,580.183960 762.171753,578.276550 762.050720,574.663208   C761.905945,570.340515 761.724304,565.986816 762.073730,561.688416   C762.447632,557.090210 759.764099,551.659668 765.263000,548.179077   C765.532288,548.008606 765.035522,546.627747 764.895447,545.810486   C780.136902,530.460144 795.238037,514.965942 810.722778,499.865112   C814.391785,496.287140 814.531433,493.974945 810.966980,490.683380   C807.549316,487.527374 804.375488,484.107239 800.966248,480.497772  z"
   id="path32" />
<path
   fill="#02A06D"
   opacity="1.000000"
   stroke="none"
   d=" M1200.995850,457.761841   C1200.316772,459.146240 1199.816772,460.494171 1198.920044,460.854645   C1197.768677,461.317444 1196.298340,460.996582 1194.965454,460.996613   C1105.817261,460.999390 1016.669128,461.000427 927.520935,461.001648   C925.555725,461.001678 923.590576,461.001648 921.262146,461.001648   C921.262146,452.933655 920.537842,445.246765 921.437927,437.755096   C922.678894,427.426117 931.085571,421.025391 941.806458,421.022186   C1005.459900,421.003143 1069.113403,421.008484 1132.766846,421.006836   C1148.430298,421.006409 1164.093628,420.993835 1179.757080,421.017700   C1192.599121,421.037231 1200.901001,429.361603 1200.992920,442.289764   C1201.028442,447.288452 1200.998535,452.287628 1200.995850,457.761841  z"
   id="path34" />
<path
   fill="#019865"
   opacity="1.000000"
   stroke="none"
   d=" M1037.023926,701.148560   C1037.834961,702.330627 1038.378052,703.971375 1039.497681,704.625061   C1053.318359,712.694885 1067.093628,720.859558 1081.161255,728.481812   C1088.090698,732.236389 1095.613770,734.890198 1102.830566,738.126282   C1103.650146,738.493835 1104.224976,739.407471 1104.976807,740.414551   C1103.381958,740.839966 1101.723755,740.987183 1100.065430,740.987488   C1047.793091,740.997437 995.520630,740.996033 943.248230,740.988892   C929.031555,740.987000 921.003967,732.964844 921.002991,718.752197   C920.999451,663.816406 921.005127,608.880554 921.083618,553.484192   C927.380920,569.762329 934.897095,585.871704 944.372986,601.040405   C950.228394,610.413635 955.985779,619.848206 961.850952,629.215332   C962.451050,630.173767 963.488708,630.858215 964.659912,632.227478   C958.471191,655.121643 961.898987,677.942871 960.884644,701.148560   C986.802368,701.148560 1011.913147,701.148560 1037.023926,701.148560  z"
   id="path36" />
<path
   fill="#01649B"
   opacity="1.000000"
   stroke="none"
   d=" M599.000000,921.001892   C626.447693,921.001892 653.395447,921.001892 679.966797,921.001892   C679.966797,934.046997 680.998962,946.720581 679.660706,959.138794   C678.453430,970.341614 664.943176,980.759155 653.409790,980.863708   C625.259949,981.118958 597.103943,981.197632 568.955444,980.887939   C553.471680,980.717651 540.891602,966.673462 541.033508,950.749817   C541.177063,934.635864 553.987488,921.393860 570.015259,921.051086   C579.506165,920.848145 589.004822,921.006165 599.000000,921.001892  z"
   id="path38" />
<path
   fill="#348CBE"
   opacity="1.000000"
   stroke="none"
   d=" M287.007111,840.851746   C268.386047,840.851746 249.765015,840.851746 230.209625,840.851746   C245.276917,801.647888 260.142914,762.967773 275.568390,722.832031   C280.718750,728.367676 284.997772,733.227600 289.551605,737.814697   C306.321350,754.706909 323.121826,771.569885 340.076935,788.275208   C342.473083,790.636169 342.955750,792.572571 341.827209,795.620728   C339.271362,802.523926 337.030731,809.543884 334.033447,816.797546   C332.790619,817.311218 332.146057,817.485168 331.566498,817.784790   C316.709259,825.465820 301.858765,833.159912 287.007111,840.851746  z"
   id="path40" />
<path
   fill="#02649B"
   opacity="1.000000"
   stroke="none"
   d=" M550.000000,441.001648   C597.376160,441.001648 644.252319,441.001648 691.128479,441.001648   C676.173279,456.303467 664.053772,474.793854 641.395752,479.347229   C637.505981,480.128937 633.523682,480.896393 629.582214,480.905945   C583.960510,481.016571 538.338379,480.980835 492.716400,480.976990   C491.729645,480.976898 490.742859,480.894592 489.182617,480.825104   C489.577026,479.213348 489.814789,477.834869 490.251312,476.522461   C493.767212,465.951172 497.443817,455.431061 500.782013,444.804413   C501.699585,441.883423 503.039734,440.915649 506.043060,440.943604   C520.527649,441.078217 535.014160,441.002655 550.000000,441.001648  z"
   id="path42" />
<path
   fill="#4A4A4A"
   opacity="1.000000"
   stroke="none"
   d=" M215.365845,1197.988892   C216.615433,1196.629883 218.128860,1195.170532 219.904800,1194.183716   C231.268372,1187.869995 243.060547,1182.239746 253.985535,1175.249756   C264.552216,1168.489136 274.576355,1160.759766 284.217133,1152.711304   C291.843079,1146.344849 299.069092,1139.311646 305.507416,1131.752441   C316.109131,1119.304932 326.642700,1106.679810 335.856293,1093.207275   C343.267670,1082.369995 348.669159,1070.160156 355.012482,1058.586914   C355.526489,1057.649048 356.426758,1056.922852 357.493835,1056.056274   C358.873932,1062.319580 360.609222,1068.600952 360.825989,1074.934204   C362.091278,1111.900024 349.552338,1143.532959 322.509186,1168.861816   C303.121185,1187.020752 279.999542,1197.493530 253.354706,1200.217896   C240.629593,1201.518921 228.161209,1201.039429 215.365845,1197.988892  z"
   id="path44" />
<path
   fill="#4A4A4A"
   opacity="1.000000"
   stroke="none"
   d=" M956.338989,1198.129761   C957.973877,1196.336792 959.792480,1194.459473 961.964050,1193.181885   C974.917053,1185.562500 988.488037,1178.857544 1000.810364,1170.339478   C1013.547119,1161.534912 1025.744995,1151.696289 1036.974243,1141.040771   C1047.027832,1131.500732 1056.199219,1120.786255 1064.381104,1109.582886   C1073.818604,1096.660156 1081.816284,1082.678223 1090.283691,1069.059570   C1092.864624,1064.908691 1094.932007,1060.438477 1097.576660,1056.052612   C1098.913574,1066.845093 1101.034790,1077.740356 1100.643433,1088.544556   C1100.031494,1105.449097 1095.371704,1121.646973 1087.205200,1136.617310   C1068.717041,1170.508301 1040.492798,1191.346924 1002.653503,1198.934937   C987.343628,1202.005249 971.963928,1201.862793 956.338989,1198.129761  z"
   id="path46" />
<path
   fill="#2E77A1"
   opacity="1.000000"
   stroke="none"
   d=" M1086.407959,820.931030   C1081.275024,817.232239 1076.982544,812.935486 1071.873779,810.120178   C1056.614746,801.711365 1041.088867,793.778564 1025.543823,785.903320   C1021.781616,783.997253 1017.544128,783.029175 1013.269043,781.383789   C1040.484375,781.089111 1067.955933,781.023926 1095.427490,780.996948   C1117.408325,780.975403 1139.389771,780.892334 1161.369629,781.036316   C1181.723999,781.169617 1198.611938,796.660217 1200.850586,816.974976   C1200.974976,818.102844 1200.866821,819.256287 1200.866821,821.010193   C1162.704346,821.010193 1124.789917,821.010193 1086.407959,820.931030  z"
   id="path48" />
<path
   fill="#CAE2ED"
   opacity="1.000000"
   stroke="none"
   d=" M299.289673,485.279297   C291.832001,490.500336 284.844818,495.833008 277.355927,500.330170   C270.707001,504.322815 263.501190,507.388092 256.533478,510.866547   C233.468735,459.427216 272.308502,398.446869 333.109344,401.206421   C331.738068,405.340973 330.419312,409.322235 329.097229,413.302368   C323.711700,429.516144 318.319580,445.727722 312.941132,461.943848   C310.079224,470.572510 305.823212,478.386383 299.289673,485.279297  z"
   id="path50" />
<path
   fill="#FBA5A3"
   opacity="1.000000"
   stroke="none"
   d=" M766.171814,240.275940   C745.241943,257.886261 724.312073,275.496582 703.120544,293.327118   C689.940063,282.383698 682.245911,268.616455 681.345459,251.975845   C680.438782,235.219757 681.145935,218.376328 681.145935,201.017258   C687.865845,201.017258 694.468689,201.017258 701.783020,201.321411   C725.641785,211.343323 746.799561,224.338837 766.171814,240.275940  z"
   id="path52" />
<path
   fill="#025F94"
   opacity="1.000000"
   stroke="none"
   d=" M838.810852,229.422729   C839.863342,232.021561 840.895935,235.052002 842.134460,238.686630   C842.935852,238.070465 844.059631,237.341385 845.026184,236.443085   C859.546570,222.947449 871.965759,207.604202 882.939636,191.212555   C888.567932,182.805588 891.935791,172.907669 897.323181,164.308838   C900.601685,159.076019 899.799805,153.910828 899.974670,148.593246   C900.203735,141.624771 900.198914,134.648605 900.546631,127.355347   C900.864685,139.523651 900.976074,152.012314 900.988098,164.501083   C901.015869,193.327652 901.071167,222.154541 900.966064,250.980759   C900.903870,268.061646 887.218750,281.282379 870.226807,280.985657   C855.686829,280.731750 842.275208,267.855591 841.065491,253.136475   C840.426880,245.365936 839.556702,237.614441 838.810852,229.422729  z"
   id="path54" />
<path
   fill="#F9A5A3"
   opacity="1.000000"
   stroke="none"
   d=" M808.020813,282.983917   C810.411926,286.308807 812.627380,289.779480 815.236206,292.923676   C818.931641,297.377594 822.917053,301.590820 826.602051,305.709656   C810.839294,321.333862 794.943604,337.089783 779.133362,352.761078   C773.967773,334.400269 762.256592,320.599670 743.061401,312.190430   C760.394714,297.630219 777.360474,283.378693 794.853271,269.298035   C799.593811,273.973938 803.807312,278.478943 808.020813,282.983917  z"
   id="path56" />
<path
   fill="#045786"
   opacity="1.000000"
   stroke="none"
   d=" M764.569824,545.979614   C765.035522,546.627747 765.532288,548.008606 765.263000,548.179077   C759.764099,551.659668 762.447632,557.090210 762.073730,561.688416   C761.724304,565.986816 761.905945,570.340515 762.050720,574.663208   C762.171753,578.276550 763.550415,580.183960 767.867126,580.112366   C784.340088,579.838684 800.820557,580.042786 817.297424,579.938782   C819.178467,579.926941 821.470642,579.639587 822.866760,578.564148   C834.076294,569.929749 845.981567,561.945129 855.950989,552.029297   C864.893982,543.134277 871.726868,532.097168 879.273987,521.845520   C880.202515,520.584290 879.974792,518.338745 879.977417,516.548828   C880.016541,490.085052 879.998840,463.621124 880.015076,437.157257   C880.016174,435.337494 880.179138,433.517822 880.510925,431.376099   C880.855835,432.545471 881.044739,434.036865 881.044617,435.528259   C881.040283,482.349518 881.019775,529.170776 880.986755,575.992065   C880.985718,577.454590 880.825867,578.916992 880.720520,580.711731   C840.886414,580.711731 801.317444,580.711731 760.993652,580.711731   C760.993652,570.575256 760.864624,560.483826 761.138245,550.403198   C761.177490,548.958008 763.160645,547.565552 764.569824,545.979614  z"
   id="path58" />
<path
   fill="#4E8BAC"
   opacity="1.000000"
   stroke="none"
   d=" M1164.370361,902.004639   C1161.230591,897.067688 1158.948730,891.771057 1155.588013,887.282043   C1149.067505,878.572388 1141.940552,870.316650 1135.013916,861.538086   C1156.750854,861.203369 1178.538696,861.203369 1200.851318,861.203369   C1200.789917,870.473938 1197.752686,878.437256 1192.124634,885.494385   C1187.103882,891.790222 1180.564941,895.916870 1173.070190,898.671021   C1170.263794,899.702271 1167.515625,900.892334 1164.370361,902.004639  z"
   id="path60" />
<path
   fill="#D48D8C"
   opacity="1.000000"
   stroke="none"
   d=" M766.496582,240.169327   C746.799561,224.338837 725.641785,211.343323 702.247681,201.386627   C721.793213,201.418167 741.634644,200.941360 761.359741,202.237076   C773.352600,203.024872 782.897156,210.183365 790.787292,220.068527   C782.601746,226.897491 774.711548,233.480103 766.496582,240.169327  z"
   id="path62" />
<path
   fill="#4A4A4A"
   opacity="1.000000"
   stroke="none"
   d=" M821.437073,740.885620   C822.241516,739.715393 823.402466,738.443298 824.801392,737.539368   C836.506958,729.975159 847.738647,721.701050 856.978210,711.276733   C864.180603,703.150635 870.249695,694.020569 876.833069,685.344849   C877.919861,683.912720 879.061646,682.522339 880.501099,681.043091   C880.876282,694.588318 881.157227,708.207275 880.907898,721.816528   C880.709595,732.638428 872.157410,740.820190 861.262146,740.947693   C848.144470,741.101318 835.023499,740.965088 821.437073,740.885620  z"
   id="path64" />
<path
   fill="#F9A5A3"
   opacity="1.000000"
   stroke="none"
   d=" M441.014404,550.970459   C441.014404,554.439514 441.014404,557.414185 441.014404,560.740295   C433.024628,560.740295 425.191040,561.468933 417.551819,560.561401   C407.319397,559.345764 400.351044,549.749329 401.033783,539.506592   C401.706177,529.419067 410.162048,521.285889 420.488892,521.028687   C427.120605,520.863525 433.759796,520.997681 441.014404,520.997681   C441.014404,530.976440 441.014404,540.726196 441.014404,550.970459  z"
   id="path66" />
<path
   fill="#2E779F"
   opacity="1.000000"
   stroke="none"
   d=" M287.468933,840.933228   C301.858765,833.159912 316.709259,825.465820 331.566498,817.784790   C332.146057,817.485168 332.790619,817.311218 333.773132,817.077393   C331.949341,824.216980 329.924164,831.417603 327.407990,838.442444   C326.966553,839.674866 324.478119,840.866089 322.913940,840.893921   C311.255859,841.101807 299.592468,841.011475 287.468933,840.933228  z"
   id="path68" />
<path
   fill="#095F8F"
   opacity="1.000000"
   stroke="none"
   d=" M847.949463,372.653473   C846.802185,372.327454 845.555664,371.745331 844.500122,370.919098   C842.271240,369.174225 840.081238,367.368439 837.992859,365.459045   C836.504700,364.098267 835.208191,362.527863 834.066345,361.307648   C832.463623,361.779907 830.517090,362.353455 828.144897,362.882385   C831.742615,358.511292 835.765930,354.184845 839.993347,349.638977   C842.877930,357.863495 845.407349,365.075165 847.949463,372.653473  z"
   id="path70" />
<path
   fill="#C68A89"
   opacity="1.000000"
   stroke="none"
   d=" M808.114563,282.599304   C803.807312,278.478943 799.593811,273.973938 795.178833,269.202942   C797.053101,267.134613 799.128845,265.332306 801.643433,263.149017   C803.937256,269.810608 806.072815,276.012634 808.114563,282.599304  z"
   id="path72" />
<path
   fill="#045786"
   opacity="1.000000"
   stroke="none"
   d=" M880.233826,426.507690   C878.482117,421.210480 876.742859,415.488007 875.032410,409.356964   C876.789551,414.659729 878.517883,420.371094 880.233826,426.507690  z"
   id="path74" />
<path
   fill="#01659C"
   opacity="1.000000"
   stroke="none"
   d=" M860.980530,392.003174   C859.665161,390.185577 858.349731,388.368011 857.069824,386.178467   C858.676147,387.288666 860.247009,388.770782 861.838013,390.784393   C861.565613,391.544983 861.273071,391.774078 860.980530,392.003174  z"
   id="path76" />
<path
   fill="#045786"
   opacity="1.000000"
   stroke="none"
   d=" M874.060547,406.627838   C872.823792,405.170410 871.557617,403.358307 870.212524,401.191101   C871.432800,402.648376 872.731995,404.460754 874.060547,406.627838  z"
   id="path78" />
<path
   fill="#095F8F"
   opacity="1.000000"
   stroke="none"
   d=" M853.018311,380.638611   C852.370483,380.194275 851.683044,379.436340 851.008301,378.316772   C851.673584,378.745148 852.326172,379.535095 853.018311,380.638611  z"
   id="path80" />
<path
   fill="#045786"
   opacity="1.000000"
   stroke="none"
   d=" M869.029907,398.628357   C868.353516,398.219269 867.666687,397.492554 866.975098,396.415863   C867.653381,396.814178 868.336365,397.562439 869.029907,398.628357  z"
   id="path82" />
<path
   fill="#045786"
   opacity="1.000000"
   stroke="none"
   d=" M860.993896,392.251465   C861.273071,391.774078 861.565613,391.544983 861.995483,391.067017   C862.709961,391.336060 863.287109,391.853912 863.963379,392.648224   C863.304626,392.947998 862.546753,392.971313 861.410889,392.995483   C861.032776,392.996338 861.007324,392.499725 860.993896,392.251465  z"
   id="path84" />
<path
   fill="#045786"
   opacity="1.000000"
   stroke="none"
   d=" M866.867371,395.738708   C866.313171,395.554138 865.690552,395.084106 865.052917,394.290894   C865.624939,394.462891 866.211914,394.958038 866.867371,395.738708  z"
   id="path86" />
<path
   fill="#025F94"
   opacity="1.000000"
   stroke="none"
   d=" M837.996399,226.334717   C838.325256,226.579773 838.613037,227.151123 838.832764,228.063431   C838.494873,227.823273 838.225098,227.242142 837.996399,226.334717  z"
   id="path88" />
<path
   fill="#019865"
   opacity="1.000000"
   stroke="none"
   d=" M1108.334473,740.910156   C1108.568115,740.703552 1109.126587,740.585388 1109.836670,740.664856   C1109.545288,740.907837 1109.102295,740.953247 1108.334473,740.910156  z"
   id="path90" />
<path
   fill="#045786"
   opacity="1.000000"
   stroke="none"
   d=" M870.161499,400.575500   C869.800476,400.446320 869.420654,400.021820 869.047058,399.287354   C869.416443,399.411621 869.779602,399.845886 870.161499,400.575500  z"
   id="path92" />
<path
   fill="#045786"
   opacity="1.000000"
   stroke="none"
   d=" M875.013733,408.674011   C874.785583,408.691742 874.506287,408.426636 874.210815,407.858765   C874.450684,407.834412 874.706604,408.112793 875.013733,408.674011  z"
   id="path94" />
<path
   fill="#095F8F"
   opacity="1.000000"
   stroke="none"
   d=" M826.604858,363.830017   C826.684998,364.042633 826.514099,364.384918 826.059692,364.817871   C825.968750,364.592255 826.161316,364.275970 826.604858,363.830017  z"
   id="path96" />
<path
   fill="#095F8F"
   opacity="1.000000"
   stroke="none"
   d=" M850.157837,376.615723   C849.927979,376.658905 849.595642,376.426178 849.229980,375.874146   C849.482971,375.816498 849.769165,376.078125 850.157837,376.615723  z"
   id="path98" />
<path
   fill="#095F8F"
   opacity="1.000000"
   stroke="none"
   d=" M853.938721,381.749725   C853.731812,381.810577 853.461060,381.620697 853.115112,381.188171   C853.318176,381.130035 853.596558,381.314484 853.938721,381.749725  z"
   id="path100" />
<path
   fill="#045786"
   opacity="1.000000"
   stroke="none"
   d=" M864.974854,393.716370   C864.764160,393.783386 864.492126,393.597687 864.138550,393.172607   C864.342529,393.110046 864.628052,393.286865 864.974854,393.716370  z"
   id="path102" />
<path
   fill="#01659C"
   opacity="1.000000"
   stroke="none"
   d=" M792.759155,472.399384   C792.978760,472.303528 793.330139,472.462708 793.774841,472.907288   C793.542419,473.013275 793.216675,472.833832 792.759155,472.399384  z"
   id="path104" />
<path
   fill="#01659C"
   opacity="1.000000"
   stroke="none"
   d=" M793.875732,473.410522   C794.110535,473.320892 794.419373,473.490570 794.788940,473.929932   C794.549622,474.023041 794.249695,473.846405 793.875732,473.410522  z"
   id="path106" />
<path
   fill="#01659C"
   opacity="1.000000"
   stroke="none"
   d=" M794.874878,474.413605   C795.108887,474.323151 795.418274,474.491241 795.789185,474.928650   C795.550537,475.022705 795.250366,474.847443 794.874878,474.413605  z"
   id="path108" />
<path
   fill="#01659C"
   opacity="1.000000"
   stroke="none"
   d=" M795.877075,475.413025   C796.111145,475.321655 796.420532,475.488892 796.792114,475.924866   C796.553650,476.019592 796.252991,475.845612 795.877075,475.413025  z"
   id="path110" />
<path
   fill="#01659C"
   opacity="1.000000"
   stroke="none"
   d=" M796.879028,476.410156   C797.114441,476.318481 797.422852,476.486572 797.792908,476.923065   C797.553711,477.017609 797.252808,476.843750 796.879028,476.410156  z"
   id="path112" />
<path
   fill="#01659C"
   opacity="1.000000"
   stroke="none"
   d=" M797.882324,477.409973   C798.117432,477.315887 798.425964,477.481720 798.800415,477.913940   C798.562805,478.010193 798.259277,477.840027 797.882324,477.409973  z"
   id="path114" />
<path
   fill="#01659C"
   opacity="1.000000"
   stroke="none"
   d=" M798.892944,478.398132   C799.126770,478.306824 799.432800,478.475342 799.804443,478.909149   C799.568481,479.002289 799.266785,478.830139 798.892944,478.398132  z"
   id="path116" />
<path
   fill="#01659C"
   opacity="1.000000"
   stroke="none"
   d=" M799.895813,479.394470   C800.130493,479.303894 800.435669,479.474274 800.806335,479.909912   C800.570007,480.001953 800.268127,479.828674 799.895813,479.394470  z"
   id="path118" />
<path
   fill="#010201"
   opacity="1.000000"
   stroke="none"
   d=" M1037.488037,701.090698   C1011.913147,701.148560 986.802368,701.148560 960.884644,701.148560   C961.898987,677.942871 958.471191,655.121643 964.956970,632.385742   C974.469299,604.804199 991.210022,583.733459 1017.498352,571.111938   C1023.895325,568.040649 1030.846924,566.074951 1037.640991,563.906494   C1040.112915,563.117554 1041.141479,562.118286 1041.056641,559.442993   C1040.868164,553.493408 1040.997925,547.533752 1040.997925,541.291992   C1054.384399,541.291992 1067.300781,541.291992 1081.000122,541.291992   C1081.000122,547.006775 1081.159790,552.765930 1080.936523,558.510193   C1080.814697,561.647339 1081.643799,563.119629 1084.943359,564.011719   C1131.749146,576.667847 1160.931885,614.903137 1160.997314,663.409546   C1161.013794,675.706848 1160.999756,688.004150 1160.999756,701.032837   C1119.743530,701.032837 1078.847778,701.032837 1037.488037,701.090698  M1100.499878,661.001770   C1107.273560,661.001770 1114.047119,661.001770 1121.181641,661.001770   C1119.832031,636.985107 1109.618896,618.788513 1088.690186,607.970093   C1066.646240,596.575134 1044.823730,598.549133 1024.846436,613.327148   C1009.103455,624.972900 1001.565308,641.151367 1000.980957,661.001770   C1034.259033,661.001770 1066.879517,661.001770 1100.499878,661.001770  z"
   id="path120" />
<path
   fill="#010101"
   opacity="1.000000"
   stroke="none"
   d=" M948.616333,1030.566650   C969.562622,1018.086304 990.726440,1017.188416 1011.363586,1029.463989   C1032.322021,1041.930786 1042.618530,1061.267456 1040.699707,1085.586060   C1038.767822,1110.071899 1025.627197,1127.802734 1002.677429,1136.748047   C979.519409,1145.774658 958.149231,1141.210205 939.812256,1124.361450   C912.053833,1098.855957 915.020691,1052.580566 948.616333,1030.566650  M968.760559,1065.172974   C962.677429,1070.284546 959.953735,1076.759399 961.425049,1084.622070   C962.851685,1092.246094 967.388672,1097.499756 974.763550,1099.996948   C983.686768,1103.018555 993.105591,1099.428467 998.062256,1091.344727   C1002.908508,1083.441040 1001.605164,1073.107544 994.946533,1066.642456   C987.975891,1059.874268 978.306152,1059.163818 968.760559,1065.172974  z"
   id="path122" />
<path
   fill="#010101"
   opacity="1.000000"
   stroke="none"
   d=" M215.044861,1026.954834   C257.607208,1007.433167 304.578156,1039.686401 300.706512,1085.986084   C298.679352,1110.227905 285.531830,1127.831665 262.777313,1136.705933   C239.644867,1145.727417 217.946594,1141.593750 199.952515,1124.383423   C169.131012,1094.904419 176.669739,1046.886353 215.044861,1026.954834  M239.701859,1061.003784   C224.341858,1063.247437 216.289215,1078.169678 223.596420,1090.848877   C228.480957,1099.324463 238.516327,1103.076294 247.726212,1099.870239   C256.357269,1096.865601 262.123749,1087.550659 260.888184,1078.608643   C259.462433,1068.290161 251.546021,1061.426880 239.701859,1061.003784  z"
   id="path124" />
<path
   fill="#000103"
   opacity="1.000000"
   stroke="none"
   d=" M825.191650,120.994934   C837.147644,121.003403 848.625671,121.003403 860.553589,121.003403   C860.553589,134.240860 860.553589,147.263550 860.553589,160.648590   C847.687561,160.648590 834.783142,160.648590 820.995117,160.648590   C820.995117,158.691025 820.994263,156.618530 820.995178,154.546051   C820.999573,144.725021 821.076294,134.903168 820.963501,125.083496   C820.931458,122.298561 821.390320,120.463257 825.191650,120.994934  z"
   id="path126" />
<path
   fill="#BDEBDB"
   opacity="1.000000"
   stroke="none"
   d=" M1100.000000,661.001770   C1066.879517,661.001770 1034.259033,661.001770 1000.980957,661.001770   C1001.565308,641.151367 1009.103455,624.972900 1024.846436,613.327148   C1044.823730,598.549133 1066.646240,596.575134 1088.690186,607.970093   C1109.618896,618.788513 1119.832031,636.985107 1121.181641,661.001770   C1114.047119,661.001770 1107.273560,661.001770 1100.000000,661.001770  z"
   id="path128" />
<path
   fill="#6C6C6C"
   opacity="1.000000"
   stroke="none"
   d=" M969.066772,1064.968262   C978.306152,1059.163818 987.975891,1059.874268 994.946533,1066.642456   C1001.605164,1073.107544 1002.908508,1083.441040 998.062256,1091.344727   C993.105591,1099.428467 983.686768,1103.018555 974.763550,1099.996948   C967.388672,1097.499756 962.851685,1092.246094 961.425049,1084.622070   C959.953735,1076.759399 962.677429,1070.284546 969.066772,1064.968262  z"
   id="path130" />
<path
   fill="#6C6C6C"
   opacity="1.000000"
   stroke="none"
   d=" M240.135452,1060.998291   C251.546021,1061.426880 259.462433,1068.290161 260.888184,1078.608643   C262.123749,1087.550659 256.357269,1096.865601 247.726212,1099.870239   C238.516327,1103.076294 228.480957,1099.324463 223.596420,1090.848877   C216.289215,1078.169678 224.341858,1063.247437 240.135452,1060.998291  z"
   id="path132" />
</svg>
